<?xml version="1.0" encoding="UTF-8"?> <svg xmlns="http://www.w3.org/2000/svg" width="1024" height="60" viewBox="0 0 1024 60" fill="none"><g clip-path="url(#clip0_441_93)"><mask id="path-1-inside-1_441_93" fill="white"><path d="M0 60C0 26.863 26.8629 0 60 0H964C997.137 0 1024 26.8629 1024 60V2044C1024 2077.14 997.137 2104 964 2104H60C26.8629 2104 0 2077.14 0 2044V60Z"></path></mask><path d="M0 60C0 25.7583 27.7583 -2 62 -2H962C996.242 -2 1024 25.7583 1024 60C1024 27.9675 997.137 2 964 2H60C26.8629 2 0 27.9675 0 60ZM1024 2044C1024 2078.24 996.242 2106 962 2106H62C27.7583 2106 0 2078.24 0 2044C0 2076.03 26.8629 2102 60 2102H964C997.137 2102 1024 2076.03 1024 2044ZM0 2104V0V2104ZM1024 0V2104V0Z" fill="#646A92" mask="url(#path-1-inside-1_441_93)"></path></g><defs><clipPath id="clip0_441_93"><rect width="1024" height="60" fill="white"></rect></clipPath></defs></svg> 