<?xml version="1.0" encoding="UTF-8"?> <svg xmlns="http://www.w3.org/2000/svg" width="129" height="62" viewBox="0 0 129 62" fill="none"><g clip-path="url(#clip0_452_17)"><path d="M31.0052 16.4701H33.8323L36.8131 21.9245L39.7631 16.4701H42.5287V27.2253H39.7631V21.0641L37.5352 25.1511H35.9987L33.7709 21.0641V27.2253H31.0052V16.4701ZM50.6973 25.1665H47.102L46.3645 27.2253H43.7525L47.6705 16.4701H50.4361L54.3541 27.2253H51.4348L50.6973 25.1665ZM47.8856 23.0461H49.9137L48.8997 19.8503L47.8856 23.0461ZM55.5827 16.4701H58.3483V20.7875L62.0973 16.4701H65.1088L61.114 20.8951L65.4161 27.2253H62.1895L59.2395 22.6774L58.3483 23.6761V27.2253H55.5827V16.4701ZM70.4876 27.4251C68.9819 27.4251 67.8552 27.1332 67.1074 26.5493C66.3699 25.9654 65.9858 25.1665 65.9551 24.1524H68.7207C68.8026 24.5416 68.9819 24.8285 69.2585 25.0128C69.535 25.187 69.9448 25.274 70.4876 25.274C71.6656 25.274 72.2546 24.9462 72.2546 24.2907C72.2546 24.0756 72.1982 23.9014 72.0856 23.7683C71.9729 23.6249 71.809 23.502 71.5939 23.3995C71.3788 23.2869 71.1125 23.1896 70.7949 23.1076C70.4774 23.0257 70.1086 22.9386 69.6887 22.8464C69.156 22.7235 68.6746 22.5801 68.2444 22.4162C67.8244 22.2421 67.4659 22.0218 67.1689 21.7555C66.8821 21.4892 66.6567 21.1717 66.4928 20.8029C66.3392 20.4239 66.2624 19.9732 66.2624 19.4508C66.2624 18.9489 66.3597 18.5033 66.5543 18.1141C66.7489 17.7146 67.0306 17.3817 67.3993 17.1154C67.7681 16.8388 68.2137 16.6288 68.7361 16.4854C69.2585 16.342 69.8423 16.2703 70.4876 16.2703C71.9012 16.2703 72.9511 16.5418 73.6374 17.0847C74.3339 17.6275 74.718 18.3958 74.7897 19.3894H72.0241C71.9626 19.0616 71.8141 18.8209 71.5785 18.6672C71.3429 18.5033 70.9793 18.4214 70.4876 18.4214C69.9448 18.4214 69.5658 18.5084 69.3507 18.6826C69.1355 18.8567 69.028 19.0821 69.028 19.3586C69.028 19.7376 69.2226 20.0142 69.6119 20.1883C70.0113 20.3625 70.5849 20.5212 71.3327 20.6646C71.8858 20.7773 72.3877 20.9156 72.8384 21.0795C73.2994 21.2331 73.6886 21.4431 74.0061 21.7094C74.3339 21.9655 74.5849 22.283 74.759 22.662C74.9332 23.0308 75.0202 23.4866 75.0202 24.0295C75.0202 25.0948 74.6207 25.9296 73.8218 26.5339C73.0228 27.128 71.9114 27.4251 70.4876 27.4251ZM76.8628 16.4701H79.6284V27.2253H76.8628V16.4701ZM81.2393 21.7862H86.3097V24.0602H81.2393V21.7862ZM87.7675 16.4701H91.8391C92.6483 16.4701 93.3705 16.5827 94.0056 16.8081C94.6406 17.0232 95.1784 17.3459 95.6188 17.7761C96.0593 18.2063 96.3973 18.744 96.6329 19.3894C96.8685 20.0347 96.9863 20.7773 96.9863 21.6172V21.9245C96.9863 22.7849 96.8634 23.5481 96.6176 24.2139C96.382 24.8694 96.0337 25.4226 95.5728 25.8732C95.1221 26.3137 94.5689 26.6517 93.9134 26.8873C93.2578 27.1127 92.5152 27.2253 91.6855 27.2253H87.7675V16.4701ZM91.5318 24.9514C91.8801 24.9514 92.2079 24.9002 92.5152 24.7977C92.8327 24.685 93.1093 24.5109 93.3449 24.2753C93.5907 24.0397 93.7802 23.7273 93.9134 23.3381C94.0568 22.9488 94.1285 22.4777 94.1285 21.9245V21.6172C94.1285 21.0948 94.0619 20.6544 93.9287 20.2959C93.8058 19.9271 93.6317 19.6301 93.4063 19.4047C93.1912 19.1691 92.9352 19.0001 92.6381 18.8977C92.3411 18.7953 92.0235 18.744 91.6855 18.744H90.5331V24.9514H91.5318ZM98.7508 16.4701H106.587V18.5904H101.516V20.6954H106.126V22.6928H101.516V25.105H106.587V27.2253H98.7508V16.4701ZM108.354 16.4701H110.797L114.961 22.4623V16.4701H117.88V27.2253H115.268L111.119 21.2331V27.2253H108.354V16.4701ZM122.562 18.744H119.259V16.4701H128.632V18.744H125.328V27.2253H122.562V18.744Z" fill="#F3F3F8"></path><path d="M34.2047 43.6413C33.6947 43.6413 33.2197 43.5613 32.7797 43.4013C32.3397 43.2313 31.9597 42.9813 31.6397 42.6513C31.3197 42.3113 31.0647 41.8863 30.8747 41.3763C30.6947 40.8663 30.6047 40.2713 30.6047 39.5913V39.2913C30.6047 38.6513 30.7047 38.0863 30.9047 37.5963C31.1047 37.1063 31.3697 36.7013 31.6997 36.3813C32.0297 36.0513 32.4097 35.8063 32.8397 35.6463C33.2797 35.4763 33.7347 35.3913 34.2047 35.3913C34.6747 35.3913 35.0947 35.4563 35.4647 35.5863C35.8447 35.7163 36.1697 35.8963 36.4397 36.1263C36.7197 36.3563 36.9447 36.6263 37.1147 36.9363C37.2947 37.2463 37.4247 37.5813 37.5047 37.9413H36.1547C36.0747 37.7513 35.9797 37.5763 35.8697 37.4163C35.7697 37.2463 35.6397 37.1013 35.4797 36.9813C35.3297 36.8613 35.1497 36.7663 34.9397 36.6963C34.7297 36.6263 34.4847 36.5913 34.2047 36.5913C33.9147 36.5913 33.6347 36.6463 33.3647 36.7563C33.0947 36.8563 32.8547 37.0163 32.6447 37.2363C32.4347 37.4463 32.2647 37.7213 32.1347 38.0613C32.0147 38.4013 31.9547 38.8113 31.9547 39.2913V39.5913C31.9547 40.1013 32.0147 40.5413 32.1347 40.9113C32.2647 41.2713 32.4347 41.5663 32.6447 41.7963C32.8547 42.0163 33.0947 42.1813 33.3647 42.2913C33.6347 42.3913 33.9147 42.4413 34.2047 42.4413C34.6947 42.4413 35.1047 42.3213 35.4347 42.0813C35.7747 41.8413 36.0147 41.5113 36.1547 41.0913H37.5047C37.3147 41.8813 36.9247 42.5063 36.3347 42.9663C35.7447 43.4163 35.0347 43.6413 34.2047 43.6413ZM41.7035 43.5663C40.8735 43.5663 40.2785 43.3663 39.9185 42.9663C39.5585 42.5663 39.3785 41.9163 39.3785 41.0163V32.9913H40.6985V41.0163C40.6985 41.5363 40.7835 41.8913 40.9535 42.0813C41.1235 42.2713 41.4235 42.3663 41.8535 42.3663C41.9635 42.3663 42.0585 42.3663 42.1385 42.3663C42.2185 42.3563 42.2985 42.3463 42.3785 42.3363V43.5063C42.2985 43.5263 42.1835 43.5413 42.0335 43.5513C41.8935 43.5613 41.7835 43.5663 41.7035 43.5663ZM44.2582 35.5413H45.5782V43.4913H44.2582V35.5413ZM44.9182 34.4913C44.6582 34.4913 44.4432 34.4063 44.2732 34.2363C44.1032 34.0663 44.0182 33.8513 44.0182 33.5913C44.0182 33.3313 44.1032 33.1163 44.2732 32.9463C44.4432 32.7763 44.6582 32.6913 44.9182 32.6913C45.1782 32.6913 45.3932 32.7763 45.5632 32.9463C45.7332 33.1163 45.8182 33.3313 45.8182 33.5913C45.8182 33.8513 45.7332 34.0663 45.5632 34.2363C45.3932 34.4063 45.1782 34.4913 44.9182 34.4913ZM48.1219 35.5413H49.3519V37.0413C49.4419 36.8213 49.5669 36.6113 49.7269 36.4113C49.8869 36.2113 50.0769 36.0363 50.2969 35.8863C50.5269 35.7363 50.7869 35.6163 51.0769 35.5263C51.3769 35.4363 51.7069 35.3913 52.0669 35.3913C53.0669 35.3913 53.8069 35.6613 54.2869 36.2013C54.7769 36.7313 55.0219 37.5113 55.0219 38.5413V43.4913H53.7019V38.8413C53.7019 38.1013 53.5469 37.5413 53.2369 37.1613C52.9269 36.7813 52.4069 36.5913 51.6769 36.5913C51.2869 36.5913 50.9469 36.6563 50.6569 36.7863C50.3769 36.9163 50.1469 37.0863 49.9669 37.2963C49.7869 37.5063 49.6519 37.7463 49.5619 38.0163C49.4819 38.2863 49.4419 38.5613 49.4419 38.8413V43.4913H48.1219V35.5413ZM57.5004 35.5413H58.8204V43.4913H57.5004V35.5413ZM58.1604 34.4913C57.9004 34.4913 57.6854 34.4063 57.5154 34.2363C57.3454 34.0663 57.2604 33.8513 57.2604 33.5913C57.2604 33.3313 57.3454 33.1163 57.5154 32.9463C57.6854 32.7763 57.9004 32.6913 58.1604 32.6913C58.4204 32.6913 58.6354 32.7763 58.8054 32.9463C58.9754 33.1163 59.0604 33.3313 59.0604 33.5913C59.0604 33.8513 58.9754 34.0663 58.8054 34.2363C58.6354 34.4063 58.4204 34.4913 58.1604 34.4913ZM64.4391 43.6413C63.9291 43.6413 63.4541 43.5613 63.0141 43.4013C62.5741 43.2313 62.1941 42.9813 61.8741 42.6513C61.5541 42.3113 61.2991 41.8863 61.1091 41.3763C60.9291 40.8663 60.8391 40.2713 60.8391 39.5913V39.2913C60.8391 38.6513 60.9391 38.0863 61.1391 37.5963C61.3391 37.1063 61.6041 36.7013 61.9341 36.3813C62.2641 36.0513 62.6441 35.8063 63.0741 35.6463C63.5141 35.4763 63.9691 35.3913 64.4391 35.3913C64.9091 35.3913 65.3291 35.4563 65.6991 35.5863C66.0791 35.7163 66.4041 35.8963 66.6741 36.1263C66.9541 36.3563 67.1791 36.6263 67.3491 36.9363C67.5291 37.2463 67.6591 37.5813 67.7391 37.9413H66.3891C66.3091 37.7513 66.2141 37.5763 66.1041 37.4163C66.0041 37.2463 65.8741 37.1013 65.7141 36.9813C65.5641 36.8613 65.3841 36.7663 65.1741 36.6963C64.9641 36.6263 64.7191 36.5913 64.4391 36.5913C64.1491 36.5913 63.8691 36.6463 63.5991 36.7563C63.3291 36.8563 63.0891 37.0163 62.8791 37.2363C62.6691 37.4463 62.4991 37.7213 62.3691 38.0613C62.2491 38.4013 62.1891 38.8113 62.1891 39.2913V39.5913C62.1891 40.1013 62.2491 40.5413 62.3691 40.9113C62.4991 41.2713 62.6691 41.5663 62.8791 41.7963C63.0891 42.0163 63.3291 42.1813 63.5991 42.2913C63.8691 42.3913 64.1491 42.4413 64.4391 42.4413C64.9291 42.4413 65.3391 42.3213 65.6691 42.0813C66.0091 41.8413 66.2491 41.5113 66.3891 41.0913H67.7391C67.5491 41.8813 67.1591 42.5063 66.5691 42.9663C65.9791 43.4163 65.2691 43.6413 64.4391 43.6413Z" fill="#F3F3F8"></path><path d="M39.4258 49.4635C37.9527 52.2044 36.4821 54.9453 35.0064 57.6834C31.8583 63.5257 23.5892 63.3549 20.2054 57.6726C18.8721 55.4333 17.9039 52.9337 16.9511 50.4748C15.913 47.799 15.1363 45.0174 14.1577 42.3145C12.6846 38.2588 9.99206 35.0598 7.2426 31.9312C4.25237 28.5343 2.02588 24.6955 1.34499 20.0921C0.679631 15.6081 0.840145 11.1755 3.0511 7.05746C5.76949 1.99594 10.6885 -0.568699 16.1874 0.106349C19.8559 0.559093 23.1646 2.06101 26.45 3.65781C30.046 5.40643 33.5722 7.35567 37.5643 7.96294C38.6905 8.13374 39.8348 8.16627 40.9714 8.26116C40.9895 8.40484 41.0102 8.54853 41.0283 8.69221C40.3215 8.83048 39.6199 9.05549 38.908 9.09345C35.1074 9.30762 31.6175 7.98463 28.1095 6.69418C24.8992 5.51487 21.6967 4.28406 18.4139 3.37586C15.245 2.5002 12.0529 2.67913 9.23091 4.73138C6.05169 7.04119 4.68214 10.4273 4.39218 14.3339C3.97277 19.9701 5.87305 24.7524 9.33706 28.9952C11.4056 31.53 13.7201 33.9916 15.1699 36.9006C17.0469 40.6662 18.1679 44.8466 19.6229 48.8427C20.4203 51.0332 21.1038 53.2834 22.0643 55.3953C24.4358 60.6032 30.8719 61.2539 33.9657 56.4282C35.022 54.7772 36.0446 53.0991 37.1682 51.5022C37.7585 50.6618 38.5378 49.9678 39.2342 49.206C39.2989 49.2928 39.3636 49.3768 39.4283 49.4635H39.4258Z" fill="#F3F3F8"></path></g><defs><clipPath id="clip0_452_17"><rect width="129" height="62" fill="white"></rect></clipPath></defs></svg> 