<?xml version="1.0" encoding="UTF-8"?> <svg xmlns="http://www.w3.org/2000/svg" width="759" height="100" viewBox="0 0 759 100" fill="none"> <g clip-path="url(#clip0_355_3640)"> <mask id="path-1-inside-1_355_3640" fill="white"> <path d="M0 60C0 26.8629 26.8629 0 60 0H699C732.137 0 759 26.8629 759 60V100H0V60Z"></path> </mask> <path d="M0 60C0 26.8629 26.8629 0 60 0H699C732.137 0 759 26.8629 759 60V100H0V60Z" fill="#646A92"></path> <path d="M0 60C0 25.7583 27.7583 -2 62 -2H697C731.242 -2 759 25.7583 759 60C759 27.9675 732.137 2 699 2H60C26.8629 2 0 27.9675 0 60ZM759 100H0H759ZM0 100V0V100ZM759 0V100V0Z" fill="#F3F3F8" fill-opacity="0.5" mask="url(#path-1-inside-1_355_3640)"></path> </g> <defs> <clipPath id="clip0_355_3640"> <rect width="759" height="100" fill="white"></rect> </clipPath> </defs> </svg> 