<?xml version="1.0" encoding="UTF-8"?> <svg xmlns="http://www.w3.org/2000/svg" width="380" height="60" viewBox="0 0 380 60" fill="none"><g clip-path="url(#clip0_476_15)"><mask id="path-1-inside-1_476_15" fill="white"><path d="M0 60C0 26.863 26.8629 0 60 0H320C353.137 0 380 26.8629 380 60V2044C380 2077.14 353.137 2104 320 2104H60C26.8629 2104 0 2077.14 0 2044V60Z"></path></mask><path d="M0 60C0 25.7583 27.7583 -2 62 -2H318C352.242 -2 380 25.7583 380 60C380 27.9675 353.137 2 320 2H60C26.8629 2 0 27.9675 0 60ZM380 2044C380 2078.24 352.242 2106 318 2106H62C27.7583 2106 0 2078.24 0 2044C0 2076.03 26.8629 2102 60 2102H320C353.137 2102 380 2076.03 380 2044ZM0 2104V0V2104ZM380 0V2104V0Z" fill="#646A92" mask="url(#path-1-inside-1_476_15)"></path></g><defs><clipPath id="clip0_476_15"><rect width="380" height="60" fill="white"></rect></clipPath></defs></svg> 